<svg xmlns="http://www.w3.org/2000/svg" width="100%" height="100%" role="img" aria-label="Education">
  <title>Education</title>
  <style>
    :root{font-size:calc(100vh * 100 / 44)}
    line{transform:translate(-.3em,0)}
    .drift{transform-box:fill-box;transform-origin:50% 50%;animation:drift 4.6s ease-in-out -1s infinite alternate}
    @keyframes drift{from{transform:translateY(-1.5px) rotate(-11deg)}to{transform:translateY(1.5px) rotate(11deg)}}
    @media (prefers-reduced-motion:reduce){.drift{animation:none}}
    @media (max-aspect-ratio:257/44){line{display:none}}
    @media (max-aspect-ratio:234/44){.end{display:none}}
  </style>
  <defs>
    <linearGradient id="trail" gradientUnits="userSpaceOnUse" x1="2.46em" y1="0" x2="100%" y2="0">
      <stop offset="0" stop-color="#F18048"/>
      <stop offset="1" stop-color="#F49840" stop-opacity=".6"/>
    </linearGradient>
  </defs>
  <line x1="2.46em" y1="50%" x2="100%" y2="50%" stroke="url(#trail)" stroke-width=".03em" stroke-linecap="round" stroke-dasharray=".001em .11em"/>
  <svg viewBox="0 0 1 44" preserveAspectRatio="xMinYMid meet">
  <path d="M20 6H202l-11 16 11 16H20z" fill="#7A487C" stroke="#552533" stroke-width="1.5" stroke-linejoin="round"/>
  <path d="M36 10.5H194M36 33.5H194" fill="none" stroke="#FCC069" stroke-width="1.5" stroke-linecap="round"/>
  <text x="116" y="28.5" text-anchor="middle" font-family="-apple-system,BlinkMacSystemFont,'Segoe UI','Noto Sans',Helvetica,Arial,sans-serif" font-size="19" font-weight="700" letter-spacing=".4" fill="#FDE8BD">Education</text>
  <g transform="translate(20 22) rotate(-24) scale(1.45)"><path d="M0-11.5 2.6-7.2 5.2-8.6 4.4-2.6 8-5.6 8.8-3.4 11.6-3.6 10 0 11.2 1.4 6 5.2 6.8 7.4 1 6.4 .9 11.5-.9 11.5-1 6.4-6.8 7.4-6 5.2-11.2 1.4-10 0-11.6-3.6-8.8-3.4-8-5.6-4.4-2.6-5.2-8.6-2.6-7.2z" fill="#F18048" stroke="#552533" stroke-width="0.76" stroke-linejoin="round"/><path d="M0 6V-7.5M0 1.5 6.5-2.2M0 1.5-6.5-2.2" fill="none" stroke="#B8472A" stroke-width="0.62" stroke-linecap="round"/></g>
  </svg>
  <svg class="end" viewBox="-1 0 1 44" preserveAspectRatio="xMaxYMid meet"><g class="drift"><g transform="translate(-16 22) rotate(24) scale(0.76)"><path d="M0-11.5 2.6-7.2 5.2-8.6 4.4-2.6 8-5.6 8.8-3.4 11.6-3.6 10 0 11.2 1.4 6 5.2 6.8 7.4 1 6.4 .9 11.5-.9 11.5-1 6.4-6.8 7.4-6 5.2-11.2 1.4-10 0-11.6-3.6-8.8-3.4-8-5.6-4.4-2.6-5.2-8.6-2.6-7.2z" fill="#F9C74F" stroke="#552533" stroke-width="1.45" stroke-linejoin="round"/><path d="M0 6V-7.5M0 1.5 6.5-2.2M0 1.5-6.5-2.2" fill="none" stroke="#C9892B" stroke-width="1.18" stroke-linecap="round"/></g></g></svg>
</svg>
